<?xml version="1.0" encoding="utf-8"?>
<!-- Generator: Adobe Illustrator 15.1.0, SVG Export Plug-In . SVG Version: 6.00 Build 0)  -->
<!DOCTYPE svg PUBLIC "-//W3C//DTD SVG 1.1//EN" "http://www.w3.org/Graphics/SVG/1.1/DTD/svg11.dtd">
<svg version="1.1" id="Layer_1" xmlns="http://www.w3.org/2000/svg" xmlns:xlink="http://www.w3.org/1999/xlink" x="0px" y="0px"
	 width="271px" height="54px" viewBox="0.5 0 271 54" enable-background="new 0.5 0 271 54" xml:space="preserve">
<g>
	<g>
		<g>
			<path fill="#FAB700" d="M19.995,46.5C9.246,46.5,0.5,37.752,0.5,27c0-5.65,2.447-11.017,6.713-14.725
				c0.567-0.493,1.426-0.433,1.918,0.135c0.493,0.566,0.433,1.426-0.135,1.919C5.326,17.521,3.22,22.138,3.22,27
				c0,9.25,7.525,16.778,16.775,16.778S36.77,36.251,36.77,27c0-9.252-7.525-16.78-16.774-16.78c-2.225,0-4.384,0.428-6.42,1.272
				c-0.694,0.288-1.489-0.042-1.777-0.735c-0.288-0.694,0.041-1.49,0.735-1.778C14.901,7.998,17.411,7.5,19.995,7.5
				c10.75,0,19.495,8.747,19.495,19.5C39.49,37.752,30.745,46.5,19.995,46.5"/>
			<path fill="#FFFFFF" d="M19.995,41.132c-7.79,0-14.127-6.339-14.127-14.131c0-7.793,6.337-14.131,14.127-14.131
				c5.946,0,11.291,3.76,13.299,9.355c0.55,1.529,0.828,3.137,0.828,4.776c0,0.751-0.609,1.36-1.36,1.36
				c-0.751,0-1.359-0.608-1.359-1.36c0-1.325-0.226-2.623-0.668-3.857c-1.622-4.518-5.938-7.553-10.739-7.553
				c-6.29,0-11.407,5.119-11.407,11.411s5.117,11.41,11.407,11.41c0.751,0,1.36,0.607,1.36,1.358
				C21.355,40.522,20.746,41.132,19.995,41.132"/>
			<path fill="#FAB700" d="M19.995,35.761c-4.829,0-8.758-3.932-8.758-8.76c0-4.831,3.929-8.761,8.758-8.761
				c0.751,0,1.36,0.609,1.36,1.36c0,0.752-0.609,1.361-1.36,1.361c-3.33,0-6.038,2.709-6.038,6.041c0,3.33,2.708,6.04,6.038,6.04
				c3.329,0,6.038-2.71,6.038-6.04c0-0.751,0.609-1.361,1.361-1.361c0.751,0,1.36,0.61,1.36,1.361
				C28.753,31.829,24.824,35.761,19.995,35.761"/>
		</g>
	</g>
	<g>
		<path fill="#FFFFFF" d="M45.829,39.238V16.806h15.015v4.241h-9.967v4.692h8.866v4.24h-8.866v9.26H45.829z"/>
		<path fill="#FFFFFF" d="M73.69,26.484c-0.433-0.108-0.938-0.222-1.52-0.34c-0.583-0.119-1.209-0.178-1.877-0.178
			c-0.303,0-0.663,0.027-1.084,0.081c-0.421,0.054-0.739,0.113-0.955,0.178v13.014h-4.821V23.118
			c0.861-0.303,1.882-0.588,3.057-0.858c1.177-0.27,2.486-0.405,3.932-0.405c0.259,0,0.571,0.016,0.938,0.048
			c0.367,0.032,0.733,0.077,1.1,0.13c0.367,0.054,0.733,0.119,1.1,0.194c0.367,0.076,0.68,0.167,0.938,0.276L73.69,26.484z"/>
		<path fill="#FFFFFF" d="M82.879,21.758c1.425,0,2.611,0.162,3.559,0.485c0.951,0.325,1.71,0.788,2.282,1.393
			c0.572,0.604,0.977,1.338,1.214,2.2c0.237,0.863,0.356,1.824,0.356,2.88v10.036c-0.691,0.15-1.651,0.33-2.88,0.533
			c-1.23,0.204-2.718,0.308-4.465,0.308c-1.102,0-2.099-0.098-2.995-0.29c-0.894-0.195-1.666-0.514-2.313-0.955
			c-0.648-0.443-1.144-1.021-1.489-1.733c-0.345-0.711-0.518-1.585-0.518-2.622c0-0.991,0.199-1.833,0.598-2.523
			c0.4-0.691,0.934-1.242,1.602-1.651c0.668-0.408,1.434-0.707,2.298-0.889c0.862-0.184,1.757-0.277,2.685-0.277
			c0.626,0,1.182,0.027,1.667,0.082c0.485,0.055,0.878,0.125,1.18,0.211v-0.453c0-0.821-0.249-1.479-0.745-1.975
			c-0.495-0.497-1.357-0.746-2.588-0.746c-0.82,0-1.628,0.061-2.427,0.179c-0.797,0.118-1.488,0.285-2.07,0.502l-0.615-3.884
			c0.279-0.086,0.631-0.179,1.051-0.276c0.421-0.097,0.878-0.183,1.376-0.259c0.496-0.075,1.019-0.141,1.569-0.195
			S82.319,21.758,82.879,21.758z M83.268,35.87c0.475,0,0.928-0.01,1.359-0.031s0.777-0.055,1.035-0.098v-3.658
			c-0.193-0.043-0.485-0.086-0.874-0.129c-0.389-0.043-0.744-0.064-1.068-0.064c-0.453,0-0.879,0.025-1.277,0.08
			c-0.399,0.055-0.75,0.156-1.053,0.307c-0.302,0.152-0.54,0.357-0.711,0.617c-0.174,0.258-0.258,0.582-0.258,0.97
			c0,0.756,0.252,1.279,0.759,1.57C81.688,35.724,82.383,35.87,83.268,35.87z"/>
		<path fill="#FFFFFF" d="M94.658,22.793c0.821-0.236,1.877-0.457,3.172-0.663c1.293-0.206,2.653-0.308,4.077-0.308
			c1.445,0,2.647,0.189,3.608,0.566c0.96,0.377,1.721,0.912,2.281,1.603c0.561,0.69,0.96,1.511,1.197,2.46s0.356,2.006,0.356,3.172
			v9.614h-4.822v-9.033c0-1.554-0.205-2.652-0.615-3.3c-0.41-0.648-1.176-0.971-2.297-0.971c-0.345,0-0.711,0.016-1.1,0.047
			c-0.389,0.034-0.734,0.071-1.036,0.114v13.143h-4.822V22.793z"/>
		<path fill="#FFFFFF" d="M112.909,30.723c0-1.228,0.199-2.388,0.599-3.479c0.399-1.089,0.976-2.039,1.731-2.848
			c0.755-0.808,1.671-1.45,2.75-1.925c1.079-0.475,2.309-0.712,3.69-0.712c0.906,0,1.736,0.08,2.491,0.243
			c0.755,0.162,1.488,0.393,2.2,0.696l-1.003,3.852c-0.453-0.172-0.95-0.324-1.489-0.453c-0.539-0.129-1.143-0.195-1.811-0.195
			c-1.424,0-2.487,0.442-3.188,1.328c-0.701,0.884-1.051,2.05-1.051,3.495c0,1.534,0.328,2.72,0.986,3.563
			c0.658,0.842,1.807,1.262,3.447,1.262c0.582,0,1.208-0.055,1.877-0.162c0.668-0.107,1.283-0.281,1.845-0.518l0.679,3.949
			c-0.561,0.238-1.263,0.441-2.103,0.614c-0.841,0.172-1.77,0.258-2.783,0.258c-1.553,0-2.891-0.23-4.013-0.694
			c-1.121-0.465-2.044-1.096-2.767-1.894c-0.722-0.799-1.25-1.741-1.585-2.831C113.076,33.179,112.909,31.997,112.909,30.723z"/>
		<path fill="#FFFFFF" d="M129.898,39.238V14.896l4.821-0.776v8.156c0.323-0.108,0.738-0.21,1.245-0.307
			c0.507-0.098,0.998-0.146,1.473-0.146c1.38,0,2.529,0.189,3.446,0.566c0.917,0.377,1.65,0.912,2.199,1.603
			c0.551,0.69,0.939,1.511,1.164,2.46c0.228,0.95,0.341,2.006,0.341,3.172v9.614h-4.82v-9.033c0-1.554-0.2-2.652-0.601-3.3
			c-0.398-0.648-1.137-0.971-2.215-0.971c-0.431,0-0.836,0.038-1.214,0.113c-0.376,0.075-0.716,0.156-1.018,0.242v12.949H129.898z"
			/>
		<path fill="#FFFFFF" d="M154.231,17.291c0,0.885-0.286,1.581-0.857,2.087c-0.571,0.508-1.247,0.761-2.022,0.761
			c-0.777,0-1.451-0.253-2.022-0.761c-0.572-0.507-0.857-1.203-0.857-2.087s0.285-1.58,0.857-2.087
			c0.571-0.507,1.245-0.761,2.022-0.761c0.775,0,1.451,0.254,2.022,0.761C153.945,15.711,154.231,16.406,154.231,17.291z
			 M153.778,39.238h-4.821V22.211h4.821V39.238z"/>
		<path fill="#FFFFFF" d="M163.193,35.772c0.886,0,1.51-0.086,1.878-0.257c0.367-0.174,0.549-0.508,0.549-1.004
			c0-0.391-0.235-0.729-0.711-1.021c-0.475-0.291-1.196-0.619-2.167-0.986c-0.757-0.281-1.44-0.572-2.057-0.874
			c-0.614-0.303-1.138-0.664-1.568-1.086c-0.432-0.42-0.768-0.921-1.004-1.505c-0.236-0.582-0.354-1.284-0.354-2.103
			c0-1.597,0.591-2.859,1.778-3.787c1.187-0.928,2.816-1.392,4.887-1.392c1.036,0,2.028,0.092,2.978,0.275
			c0.948,0.183,1.703,0.384,2.265,0.599l-0.841,3.755c-0.563-0.195-1.171-0.367-1.829-0.519c-0.657-0.151-1.397-0.226-2.216-0.226
			c-1.511,0-2.266,0.421-2.266,1.263c0,0.194,0.032,0.367,0.097,0.519c0.064,0.151,0.195,0.295,0.389,0.438
			c0.193,0.138,0.458,0.29,0.793,0.452c0.334,0.164,0.76,0.344,1.278,0.539c1.057,0.393,1.93,0.779,2.622,1.157
			c0.689,0.383,1.234,0.793,1.633,1.234c0.399,0.443,0.68,0.931,0.842,1.47s0.242,1.161,0.242,1.872
			c0,1.681-0.631,2.951-1.894,3.813c-1.261,0.861-3.046,1.29-5.355,1.29c-1.51,0-2.766-0.129-3.77-0.386
			c-1.003-0.26-1.698-0.477-2.086-0.648l0.808-3.916c0.821,0.322,1.662,0.578,2.523,0.76
			C161.501,35.683,162.354,35.772,163.193,35.772z"/>
		<path fill="#FFFFFF" d="M173.193,30.854c0-1.511,0.231-2.833,0.695-3.965c0.464-1.134,1.073-2.077,1.828-2.833
			c0.755-0.755,1.623-1.328,2.604-1.716c0.981-0.388,1.991-0.582,3.026-0.582c2.416,0,4.325,0.739,5.728,2.217
			c1.401,1.479,2.104,3.651,2.104,6.522c0,0.279-0.011,0.588-0.032,0.922c-0.021,0.336-0.043,0.63-0.064,0.89h-10.939
			c0.109,0.994,0.573,1.78,1.392,2.362c0.821,0.584,1.921,0.875,3.302,0.875c0.885,0,1.752-0.08,2.604-0.242s1.547-0.361,2.088-0.6
			l0.646,3.916c-0.259,0.131-0.604,0.26-1.035,0.389c-0.431,0.129-0.911,0.244-1.44,0.34c-0.527,0.097-1.094,0.177-1.699,0.243
			c-0.604,0.064-1.207,0.096-1.812,0.096c-1.531,0-2.864-0.227-3.996-0.679c-1.134-0.453-2.071-1.074-2.814-1.86
			c-0.744-0.787-1.295-1.722-1.65-2.8C173.371,33.271,173.193,32.104,173.193,30.854z M184.518,29.009
			c-0.021-0.41-0.092-0.811-0.21-1.198c-0.117-0.387-0.302-0.733-0.55-1.036c-0.248-0.301-0.561-0.55-0.938-0.744
			c-0.379-0.195-0.848-0.292-1.408-0.292c-0.54,0-1.003,0.093-1.391,0.276c-0.39,0.183-0.713,0.427-0.972,0.728
			c-0.259,0.303-0.459,0.654-0.599,1.053c-0.141,0.397-0.244,0.804-0.309,1.214H184.518z"/>
		<path fill="#FAB700" d="M208.206,34.9v4.338h-14.983V16.806h5.049V34.9H208.206z"/>
		<path fill="#FAB700" d="M227.038,30.691c0,1.337-0.194,2.562-0.583,3.674c-0.388,1.111-0.949,2.062-1.683,2.849
			c-0.733,0.786-1.612,1.397-2.637,1.829c-1.024,0.431-2.174,0.646-3.445,0.646c-1.252,0-2.39-0.215-3.414-0.646
			c-1.024-0.432-1.904-1.043-2.639-1.829c-0.733-0.787-1.304-1.737-1.715-2.849c-0.409-1.112-0.613-2.337-0.613-3.674
			s0.21-2.558,0.63-3.658c0.421-1.1,1.003-2.039,1.747-2.816s1.63-1.38,2.654-1.813c1.024-0.431,2.141-0.646,3.35-0.646
			c1.229,0,2.355,0.216,3.381,0.646c1.024,0.433,1.903,1.036,2.637,1.813s1.305,1.716,1.715,2.816
			C226.834,28.134,227.038,29.354,227.038,30.691z M222.12,30.691c0-1.489-0.297-2.659-0.89-3.512
			c-0.595-0.853-1.44-1.279-2.54-1.279c-1.101,0-1.952,0.426-2.558,1.279c-0.604,0.853-0.905,2.023-0.905,3.512
			s0.302,2.671,0.905,3.545c0.605,0.873,1.457,1.311,2.558,1.311c1.1,0,1.945-0.438,2.54-1.311
			C221.823,33.362,222.12,32.181,222.12,30.691z"/>
		<path fill="#FAB700" d="M229.95,30.723c0-1.228,0.2-2.388,0.6-3.479c0.397-1.089,0.975-2.039,1.73-2.848
			c0.756-0.808,1.671-1.45,2.751-1.925c1.078-0.475,2.308-0.712,3.688-0.712c0.905,0,1.736,0.08,2.491,0.243
			c0.756,0.162,1.49,0.393,2.201,0.696l-1.003,3.852c-0.453-0.172-0.95-0.324-1.489-0.453c-0.54-0.129-1.144-0.195-1.812-0.195
			c-1.424,0-2.486,0.442-3.188,1.328c-0.701,0.884-1.051,2.05-1.051,3.495c0,1.534,0.328,2.72,0.985,3.563
			c0.659,0.842,1.808,1.262,3.446,1.262c0.583,0,1.209-0.055,1.877-0.162c0.669-0.107,1.283-0.281,1.846-0.518l0.678,3.949
			c-0.56,0.238-1.261,0.441-2.103,0.614c-0.842,0.172-1.77,0.258-2.782,0.258c-1.555,0-2.893-0.23-4.014-0.694
			c-1.121-0.465-2.043-1.096-2.766-1.894c-0.724-0.799-1.252-1.741-1.585-2.831C230.116,33.179,229.95,31.997,229.95,30.723z"/>
		<path fill="#FAB700" d="M252.246,21.758c1.424,0,2.61,0.162,3.559,0.485c0.95,0.325,1.71,0.788,2.281,1.393
			c0.572,0.604,0.977,1.338,1.215,2.2c0.238,0.863,0.355,1.824,0.355,2.88v10.036c-0.69,0.15-1.65,0.33-2.88,0.533
			c-1.23,0.204-2.719,0.308-4.466,0.308c-1.1,0-2.099-0.098-2.992-0.29c-0.896-0.195-1.668-0.514-2.314-0.955
			c-0.646-0.443-1.144-1.021-1.488-1.733c-0.346-0.711-0.519-1.585-0.519-2.622c0-0.991,0.199-1.833,0.6-2.523
			c0.398-0.691,0.933-1.242,1.601-1.651c0.67-0.408,1.435-0.707,2.299-0.889c0.862-0.184,1.757-0.277,2.684-0.277
			c0.628,0,1.183,0.027,1.668,0.082c0.486,0.055,0.878,0.125,1.181,0.211v-0.453c0-0.821-0.248-1.479-0.743-1.975
			c-0.498-0.497-1.359-0.746-2.589-0.746c-0.82,0-1.63,0.061-2.427,0.179c-0.799,0.118-1.488,0.285-2.072,0.502l-0.614-3.884
			c0.281-0.086,0.632-0.179,1.052-0.276c0.421-0.097,0.879-0.183,1.375-0.259c0.497-0.075,1.02-0.141,1.569-0.195
			C251.13,21.785,251.685,21.758,252.246,21.758z M252.634,35.87c0.475,0,0.928-0.01,1.359-0.031s0.776-0.055,1.035-0.098v-3.658
			c-0.193-0.043-0.485-0.086-0.872-0.129c-0.39-0.043-0.746-0.064-1.069-0.064c-0.453,0-0.88,0.025-1.277,0.08
			c-0.399,0.055-0.751,0.156-1.051,0.307c-0.303,0.152-0.541,0.357-0.714,0.617c-0.173,0.258-0.258,0.582-0.258,0.97
			c0,0.756,0.253,1.279,0.76,1.57C251.054,35.724,251.75,35.87,252.634,35.87z"/>
		<path fill="#FAB700" d="M270.82,39.56c-1.402-0.021-2.54-0.172-3.415-0.452c-0.872-0.281-1.563-0.674-2.07-1.182
			c-0.507-0.507-0.853-1.122-1.035-1.845c-0.183-0.722-0.275-1.538-0.275-2.443V14.896l4.821-0.776v18.545
			c0,0.434,0.032,0.822,0.098,1.167c0.065,0.344,0.188,0.635,0.372,0.873c0.183,0.238,0.447,0.434,0.793,0.584
			s0.809,0.248,1.392,0.29L270.82,39.56z"/>
	</g>
</g>
</svg>
